<?xml version="1.0" encoding="utf-8"?>
<svg viewBox="0 0 457 175" fill="none" xmlns="http://www.w3.org/2000/svg">
  <path d="M 28.344 99.99 L 53.717 88.697 L 68.322 97.167 L 71.272 124.954 L 53.275 124.805 L 55.93 105.488 L 52.832 103.705 L 37.637 115.593 L 28.344 99.99 Z" fill="#B4C0D3" transform="matrix(1, 0, 0, 1, 3.552713678800501e-15, 0)"/>
  <path d="M 69.945 95.977 L 92.369 112.471 L 101.22 96.572 L 83.222 89.291 L 83.222 85.725 L 101.22 78.295 L 92.369 62.544 L 69.945 79.038 L 69.945 95.977 Z" fill="#00D3AB" transform="matrix(1, 0, 0, 1, 3.552713678800501e-15, 0)"/>
  <path d="M 68.322 77.701 L 71.272 49.914 L 53.275 50.211 L 55.93 69.528 L 52.832 71.312 L 37.49 59.424 L 28.344 74.878 L 53.717 86.171 L 68.322 77.701 Z" fill="#4876EF" transform="matrix(1, 0, 0, 1, 3.552713678800501e-15, 0)"/>
  <text style="fill: rgb(72, 118, 238); font-family: Arial, sans-serif; font-size: 50px; font-weight: 700; white-space: pre;" x="121.019" y="104.212" transform="matrix(1, 0, 0, 1, 3.552713678800501e-15, 0)">CryptoWallet</text>
</svg>